<svg width="20" height="20" viewBox="0 0 20 20" fill="none" xmlns="http://www.w3.org/2000/svg">
<path d="M19 4C18.4 4 18 4.4 18 5V15C18 16.7 16.7 18 15 18H5C4.4 18 4 18.4 4 19C4 19.6 4.4 20 5 20H15C17.8 20 20 17.8 20 15V5C20 4.4 19.6 4 19 4ZM16 13V3C16 1.3 14.7 0 13 0H3C1.3 0 0 1.3 0 3V13C0 14.7 1.3 16 3 16H13C14.7 16 16 14.7 16 13ZM11 9H9V11C9 11.6 8.6 12 8 12C7.4 12 7 11.6 7 11V9H5C4.4 9 4 8.6 4 8C4 7.4 4.4 7 5 7H7V5C7 4.4 7.4 4 8 4C8.6 4 9 4.4 9 5V7H11C11.6 7 12 7.4 12 8C12 8.6 11.6 9 11 9Z" fill="white"/>
</svg>
