<svg width="23" height="27" viewBox="0 0 23 27" fill="none" xmlns="http://www.w3.org/2000/svg">
<path d="M22.8655 7.19591C22.731 6.9269 22.5965 6.52339 22.3275 6.38889L12.2398 0.201754C11.8363 -0.0672514 11.2982 -0.0672514 10.7602 0.201754L0.672515 6.38889C0.269006 6.65789 0 7.0614 0 7.46491V19.1667C0 19.5702 0.269006 20.1082 0.672515 20.3772L10.7602 26.5643C11.1637 26.8333 11.7018 26.8333 12.2398 26.5643L22.3275 20.3772C22.731 20.1082 23 19.7047 23 19.1667V7.46491C22.8655 7.33041 22.8655 7.33041 22.8655 7.19591ZM10.0877 23.0673L2.69006 18.4942V9.88596L10.0877 14.4591V23.0673ZM11.4327 12.1725L3.90058 7.46491L11.4327 2.89181L18.9649 7.59941L11.4327 12.1725Z" fill="#8B8F92"/>
</svg>
