<svg width="30" height="30" viewBox="0 0 30 30" fill="none" xmlns="http://www.w3.org/2000/svg">
<path d="M6.81818 16.3636H1.36364C0.545455 16.3636 0 16.9091 0 17.7273V28.6364C0 29.4545 0.545455 30 1.36364 30H6.81818C7.63636 30 8.18182 29.4545 8.18182 28.6364V17.7273C8.18182 16.9091 7.63636 16.3636 6.81818 16.3636ZM28.6364 10.9091H23.1818C22.3636 10.9091 21.8182 11.4545 21.8182 12.2727V28.6364C21.8182 29.4545 22.3636 30 23.1818 30H28.6364C29.4545 30 30 29.4545 30 28.6364V12.2727C30 11.4545 29.4545 10.9091 28.6364 10.9091ZM17.7273 0H12.2727C11.4545 0 10.9091 0.545455 10.9091 1.36364V28.6364C10.9091 29.4545 11.4545 30 12.2727 30H17.7273C18.5455 30 19.0909 29.4545 19.0909 28.6364V1.36364C19.0909 0.545455 18.5455 0 17.7273 0Z" fill="#8B8F92"/>
</svg>
