<svg width="30" height="30" viewBox="0 0 30 30" fill="none" xmlns="http://www.w3.org/2000/svg">
<path d="M6.81817 16.3636H1.36363C0.545454 16.3636 0 16.9091 0 17.7272V28.6363C0 29.4545 0.545454 30 1.36363 30H6.81817C7.63635 30 8.18181 29.4545 8.18181 28.6363V17.7272C8.18181 16.9091 7.63635 16.3636 6.81817 16.3636ZM28.6363 10.9091H23.1818C22.3636 10.9091 21.8182 11.4545 21.8182 12.2727V28.6363C21.8182 29.4545 22.3636 30 23.1818 30H28.6363C29.4545 30 30 29.4545 30 28.6363V12.2727C30 11.4545 29.4545 10.9091 28.6363 10.9091ZM17.7272 0H12.2727C11.4545 0 10.9091 0.545454 10.9091 1.36363V28.6363C10.9091 29.4545 11.4545 30 12.2727 30H17.7272C18.5454 30 19.0909 29.4545 19.0909 28.6363V1.36363C19.0909 0.545454 18.5454 0 17.7272 0Z" fill="white"/>
</svg>
