<svg width="14" height="12" viewBox="0 0 14 12" fill="none" xmlns="http://www.w3.org/2000/svg">
<path d="M6.99999 4.9C6.23 4.9 5.6 5.53 5.6 6.29999C5.6 7.06999 6.23 7.69999 6.99999 7.69999C7.76999 7.69999 8.39999 7.06999 8.39999 6.29999C8.39999 5.53 7.76999 4.9 6.99999 4.9ZM11.9 2.1H10.99L10.78 1.47C10.71 1.26 10.64 1.12 10.5 0.909999C10.5 0.909999 10.5 0.909999 10.5 0.839999L10.43 0.769999C10.01 0.28 9.44999 0 8.81999 0H5.18C4.83 0 4.41 0.14 4.13 0.35C4.06 0.35 4.06 0.42 3.99 0.42C3.64 0.699999 3.36 1.05 3.22 1.47L3.01 2.1H2.1C0.909999 2.1 0 3.01 0 4.2V9.79999C0 10.99 0.909999 11.9 2.1 11.9H11.9C13.09 11.9 14 10.99 14 9.79999V4.2C14 3.01 13.09 2.1 11.9 2.1ZM6.99999 9.09999C5.46 9.09999 4.2 7.83999 4.2 6.29999C4.2 4.76 5.46 3.5 6.99999 3.5C8.53999 3.5 9.79999 4.76 9.79999 6.29999C9.79999 7.83999 8.53999 9.09999 6.99999 9.09999Z" fill="white"/>
</svg>
