<svg width="22" height="27" viewBox="0 0 22 27" fill="none" xmlns="http://www.w3.org/2000/svg">
<path d="M17.55 2.7H15.93C15.39 1.08 13.905 0 12.15 0H9.45C7.695 0 6.21 1.08 5.67 2.7H4.05C1.755 2.7 0 4.455 0 6.75V22.95C0 25.245 1.755 27 4.05 27H17.55C19.845 27 21.6 25.245 21.6 22.95V6.75C21.6 4.455 19.845 2.7 17.55 2.7ZM8.1 4.05C8.1 3.24 8.64 2.7 9.45 2.7H12.15C12.96 2.7 13.5 3.24 13.5 4.05V5.4H8.1V4.05ZM12.15 18.9H6.75C5.94 18.9 5.4 18.36 5.4 17.55C5.4 16.74 5.94 16.2 6.75 16.2H12.15C12.96 16.2 13.5 16.74 13.5 17.55C13.5 18.36 12.96 18.9 12.15 18.9ZM14.85 13.5H6.75C5.94 13.5 5.4 12.96 5.4 12.15C5.4 11.34 5.94 10.8 6.75 10.8H14.85C15.66 10.8 16.2 11.34 16.2 12.15C16.2 12.96 15.66 13.5 14.85 13.5Z" fill="#8B8F92"/>
</svg>
