<svg width="15" height="18" viewBox="0 0 15 18" fill="none" xmlns="http://www.w3.org/2000/svg">
<path fill-rule="evenodd" clip-rule="evenodd" d="M8.70013 9H3.59993V3.6H8.70013C9.4162 3.6 10.1029 3.88446 10.6093 4.39081C11.1156 4.89716 11.4001 5.58392 11.4001 6.3C11.4001 7.01608 11.1156 7.70284 10.6093 8.20919C10.1029 8.71554 9.4162 9 8.70013 9ZM8.70013 0H0V18H3.59993V12.6H8.70013C10.371 12.6 11.9734 11.9363 13.1548 10.7548C14.3363 9.57329 15 7.97086 15 6.3C15 4.62914 14.3363 3.02671 13.1548 1.84523C11.9734 0.663748 10.371 0 8.70013 0Z" fill="white"/>
</svg>
