<svg width="21" height="20" viewBox="0 0 21 20" fill="none" xmlns="http://www.w3.org/2000/svg">
<path d="M19.7342 18.3139L16.0235 14.6333C17.4639 12.8374 18.1614 10.5579 17.9727 8.26356C17.7839 5.96919 16.7233 3.83431 15.0089 2.29792C13.2945 0.761532 11.0565 -0.0595993 8.75527 0.00337152C6.454 0.0663423 4.26433 1.00863 2.63648 2.63648C1.00863 4.26433 0.0663423 6.454 0.00337152 8.75527C-0.0595993 11.0565 0.761532 13.2945 2.29792 15.0089C3.83431 16.7233 5.96919 17.7839 8.26356 17.9727C10.5579 18.1614 12.8374 17.4639 14.6333 16.0235L18.3139 19.7041C18.4069 19.7979 18.5175 19.8723 18.6394 19.9231C18.7613 19.9739 18.892 20 19.024 20C19.1561 20 19.2868 19.9739 19.4087 19.9231C19.5306 19.8723 19.6412 19.7979 19.7342 19.7041C19.9144 19.5177 20.0152 19.2684 20.0152 19.009C20.0152 18.7497 19.9144 18.5004 19.7342 18.3139ZM9.02239 16.0235C7.63769 16.0235 6.28409 15.6129 5.13275 14.8436C3.98142 14.0743 3.08407 12.9809 2.55416 11.7016C2.02426 10.4223 1.88562 9.01462 2.15576 7.65653C2.4259 6.29844 3.0927 5.05095 4.07182 4.07182C5.05095 3.0927 6.29844 2.4259 7.65653 2.15576C9.01462 1.88562 10.4223 2.02426 11.7016 2.55416C12.9809 3.08407 14.0743 3.98142 14.8436 5.13275C15.6129 6.28409 16.0235 7.63769 16.0235 9.02239C16.0235 10.8792 15.2859 12.66 13.973 13.973C12.66 15.2859 10.8792 16.0235 9.02239 16.0235Z" fill="white"/>
</svg>
