<svg width="19" height="20" viewBox="0 0 19 20" fill="none" xmlns="http://www.w3.org/2000/svg">
<path d="M9.31895 10C12.1189 10 14.3189 7.8 14.3189 5C14.3189 2.2 12.1189 0 9.31895 0C6.51895 0 4.31895 2.2 4.31895 5C4.31895 7.8 6.51895 10 9.31895 10ZM18.6189 18.8C17.319 13.7 12.1189 10.5 7.01895 11.8C3.61895 12.7 0.91895 15.3 0.01895 18.8C-0.08105 19.3 0.21895 19.9 0.81895 20C0.91895 20 1.01895 20 1.01895 20H17.6189C18.219 20 18.6189 19.6 18.6189 19C18.6189 18.9 18.6189 18.8 18.6189 18.8Z" fill="white"/>
</svg>
