<svg width="27" height="27" viewBox="0 0 27 27" fill="none" xmlns="http://www.w3.org/2000/svg">
<path d="M26.6209 24.7051L21.6154 19.74C23.5584 17.3174 24.4993 14.2424 24.2447 11.1474C23.9901 8.05229 22.5594 5.1724 20.2466 3.09985C17.9339 1.02729 14.915 -0.080398 11.8107 0.0045481C8.7063 0.0894942 5.75248 1.36062 3.55655 3.55655C1.36062 5.75248 0.0894942 8.7063 0.0045481 11.8107C-0.080398 14.915 1.02729 17.9339 3.09985 20.2466C5.1724 22.5594 8.05229 23.9901 11.1474 24.2447C14.2424 24.4993 17.3174 23.5584 19.74 21.6154L24.7051 26.5804C24.8305 26.7069 24.9797 26.8073 25.1441 26.8758C25.3085 26.9443 25.4849 26.9795 25.663 26.9795C25.8411 26.9795 26.0174 26.9443 26.1819 26.8758C26.3463 26.8073 26.4955 26.7069 26.6209 26.5804C26.8641 26.3289 27 25.9926 27 25.6427C27 25.2928 26.8641 24.9566 26.6209 24.7051ZM12.171 21.6154C10.3031 21.6154 8.47709 21.0615 6.92397 20.0237C5.37084 18.986 4.16033 17.5109 3.44551 15.7852C2.73068 14.0595 2.54365 12.1605 2.90807 10.3285C3.27248 8.49645 4.17197 6.81362 5.4928 5.4928C6.81362 4.17197 8.49645 3.27248 10.3285 2.90807C12.1605 2.54365 14.0595 2.73068 15.7852 3.44551C17.5109 4.16033 18.986 5.37084 20.0237 6.92397C21.0615 8.47709 21.6154 10.3031 21.6154 12.171C21.6154 14.6758 20.6204 17.078 18.8492 18.8492C17.078 20.6204 14.6758 21.6154 12.171 21.6154Z" fill="#8B8F92"/>
</svg>
