<svg width="27" height="27" viewBox="0 0 27 27" fill="none" xmlns="http://www.w3.org/2000/svg">
<path d="M26.5959 24.7104L21.6127 19.7271C25.7878 14.4745 24.9798 6.79759 19.7271 2.62242C14.4745 -1.55274 6.79759 -0.60996 2.62242 4.50798C-1.55274 9.76061 -0.60996 17.4375 4.50798 21.6127C8.95251 25.1144 15.2826 25.1144 19.7271 21.6127L24.7104 26.5959C25.2491 27.1347 26.0572 27.1347 26.5959 26.5959C27.1347 26.0572 27.1347 25.2491 26.5959 24.7104ZM12.1849 21.6127C6.93227 21.6127 2.75711 17.4375 2.75711 12.1849C2.75711 6.93227 6.93227 2.75711 12.1849 2.75711C17.4375 2.75711 21.6127 6.93227 21.6127 12.1849C21.6127 17.4375 17.4375 21.6127 12.1849 21.6127Z" fill="#8B8F92"/>
</svg>
