<svg width="23" height="27" viewBox="0 0 23 27" fill="none" xmlns="http://www.w3.org/2000/svg">
<path d="M22.8654 7.19589C22.7309 6.92689 22.5964 6.52338 22.3274 6.38888L12.2397 0.201754C11.8362 -0.0672513 11.2982 -0.0672513 10.7602 0.201754L0.672513 6.38888C0.269005 6.65788 0 7.06139 0 7.4649V19.1666C0 19.5701 0.269005 20.1081 0.672513 20.3772L10.7602 26.5643C11.1637 26.8333 11.7017 26.8333 12.2397 26.5643L22.3274 20.3772C22.7309 20.1081 23 19.7046 23 19.1666V7.4649C22.8654 7.33039 22.8654 7.33039 22.8654 7.19589ZM10.0877 23.0672L2.69005 18.4941V9.88594L10.0877 14.459V23.0672ZM11.4327 12.1725L3.90058 7.4649L11.4327 2.89181L18.9649 7.5994L11.4327 12.1725Z" fill="white"/>
</svg>
